<svg xmlns="http://www.w3.org/2000/svg" width="82" height="30" fill="#fff057" xmlns:v="https://vecta.io/nano"><path d="M77.2 2.48V.72h-.64V.21h1.87v.51h-.64v1.75h-.59v.01zm3.51 0V.95l-.58 1.53h-.26L79.29.95v1.53h-.58V.21h.81L80 1.49l.48-1.28h.82v2.27h-.59zm-36.7 19.91L39.43 9.37l3.56-1.14 2.99 9.48 3.01-11.4 3.56-1.14-4.6 15.95-3.94 1.26v.01zm9.41-17.13l2.18-.7V0L36.36 6.14v22.89l17.05-5.45V5.26h.01zm-43.1 4.94l-2.48.79v3.25l.81-.26 1.67-.53a2.25 2.25 0 0 0 1.51-2.11c0-1-.69-1.41-1.51-1.14zm2.3 10.6c-.69.22-1.32-.04-1.63-.68l-1.27-2.65c-.17-.35-.51-.49-.89-.37-.55.18-.99.84-.99 1.5v3.73l-3.14 1V8.85l6.09-1.95c2.7-.86 4.23.78 4.23 3.47 0 2.44-1.21 4.16-2.32 5.03l-.11.08 2.48 4.53-2.47.79h.02zM0 6.14v22.89l17.05-5.45V5.26l2.18-.7V0L0 6.14zm64.91 4.06l-2.48.79v3.25l.81-.26 1.67-.53a2.25 2.25 0 0 0 1.51-2.11c0-1-.69-1.41-1.51-1.14zm2.3 10.6c-.69.22-1.32-.04-1.63-.68l-1.27-2.65c-.17-.35-.51-.49-.89-.37-.55.18-.99.84-.99 1.5v3.73l-3.14 1V8.85l6.09-1.95c2.7-.86 4.23.78 4.23 3.47 0 2.44-1.21 4.16-2.32 5.03l-.11.08 2.48 4.53-2.47.79h.02zM54.59 6.14v22.89l19.24-6.14V0L54.59 6.14zm-24.255 9.613c.939-1.969.564-4.107-.837-4.775s-3.297.387-4.236 2.356-.564 4.107.837 4.775 3.298-.387 4.236-2.356zM27.81 22.19c-3.55 1.14-6.43-1.37-6.43-5.6s2.88-8.57 6.43-9.7c3.55-1.14 6.43 1.37 6.43 5.6s-2.88 8.57-6.43 9.7zM18.19 6.14v22.89l17.05-5.45V5.26l2.18-.7V0L18.18 6.14h.01z"/></svg>