<svg xmlns="http://www.w3.org/2000/svg" viewBox="0 0 32 32" xmlns:v="https://vecta.io/nano"><path d="M12.3 20.8c-.3 0-.4-.1-.5-.1h-.2l-.1-.1-5.7-3.5h0s-.1-.1-.2-.1l-.3-.3c-.3-.3-.3-.7-.3-1s0-.5.2-.9v-.1l.1-.1.3-.3c.1 0 .1-.1.2-.1h0l5.6-3.3c.3-.2.6-.2.8-.2.3 0 .7.1.9.3.4.2.6.6.6 1.1 0 .6-.4 1.1-.9 1.3L9 15.6l3.7 2.2c.5.2.9.7.9 1.3.1.4 0 .8-.3 1.1-.1.4-.5.6-1 .6z" fill-rule="evenodd"/><path d="M12.3 11.4c.2 0 .5.1.6.2.2.1.4.4.4.6 0 .4-.2.7-.6.9l-4.6 2.7 4.5 2.7c.4.1.6.5.6.9.1.6-.4 1-.9 1-.2 0-.4-.1-.5-.1l-5.6-3.4c-.1-.1-.4-.2-.5-.4-.1-.1-.1-.4-.1-.6s0-.4.1-.6c.1-.1.4-.2.5-.4l5.6-3.3c.2-.2.3-.2.5-.2m0-1.1c-.3 0-.7 0-1.1.3l-5.5 3.2-.1.1-.2.1h-.1c-.1.1-.3.2-.4.3l-.1.1-.1.2c-.2.5-.2.8-.2 1.1 0 .4 0 .9.4 1.4.1.1.3.2.4.3 0 0 .1 0 .1.1l.1.1h.1l5.6 3.4.3.2h.1c.2.1.4.1.7.1.6 0 1.2-.3 1.6-.7.3-.4.5-.9.4-1.5 0-.8-.5-1.4-1.2-1.7l-2.8-1.7 2.9-1.7c.7-.3 1.2-1 1.2-1.9 0-.6-.3-1.2-.8-1.5-.4-.2-.8-.3-1.3-.3h0z" fill="#fff"/><path d="M12.6 26.8c-.8 0-1.3-.6-1.3-1.4 0-.7.5-1.2 1.1-1.4h.1 2.2V7.8h-2.1c-.7 0-1.3-.6-1.3-1.3s.5-1.4 1.3-1.4h2.9c1.7 0 2 1 2 1.9v18c0 .9-.3 1.9-2 1.9h-2.9z" fill-rule="evenodd"/><path d="M15.5 5.6c1 0 1.5.4 1.5 1.4v18c0 1-.5 1.3-1.5 1.3h-2.9c-.5 0-.7-.4-.7-.9 0-.4.2-.7.7-.9h.1 2.6V7.2h-2.7c-.5 0-.7-.4-.7-.7 0-.4.2-.9.7-.9h2.9m0-1.1h-2.9c-1.1 0-1.8 1-1.8 2a1.79 1.79 0 0 0 1.8 1.8h1.6v15.2h-1.5-.1-.1-.1c-.9.2-1.6 1-1.6 1.9 0 1.1.8 2 1.8 2h2.9c1.6 0 2.6-.9 2.6-2.4V7c0-1.6-1-2.5-2.6-2.5h0z" fill="#fff"/><path d="M19.5 20.8c-.8 0-1.4-.6-1.4-1.5 0-.6.4-1.1.9-1.4l3.8-2.2-3.7-2.2c-.5-.2-.9-.8-.9-1.4a1.53 1.53 0 0 1 .4-1 1.53 1.53 0 0 1 1-.4c.3 0 .4.1.5.1h.2l.1.1 5.6 3.4c.2.1.4.3.6.5.3.3.3.7.3 1s0 .5-.2.9l-.1.3h-.3c-.1 0-.2.1-.2.1h0l-5.7 3.5c-.5.2-.7.2-.9.2z" fill-rule="evenodd"/><path d="M19.7 11.4c.2 0 .4.1.5.1l5.6 3.4c.2.1.3.2.5.4.1.1.1.4.1.6s0 .4-.1.6c-.2 0-.5.1-.6.2L20 20.2c-.2.1-.4.1-.5.1-.5 0-.9-.4-.9-1 0-.4.2-.7.6-.9l4.6-2.7-4.5-2.7c-.4-.1-.6-.5-.6-.9 0-.2.1-.5.2-.6.3 0 .5-.1.8-.1m0-1.1c-.5 0-1 .2-1.4.6-.3.3-.6.9-.6 1.4 0 .8.5 1.5 1.2 1.8l2.8 1.7-2.9 1.7c-.7.3-1.2 1-1.2 1.9 0 1.2.8 2.1 2 2.1.3 0 .6 0 1-.2h0 0l5.6-3.4.1-.1h0 .6l.3-.6c.2-.5.2-.8.2-1.1 0-.4 0-.9-.4-1.4-.2-.2-.4-.4-.7-.5l-5.6-3.4-.3-.2h-.1c-.1-.3-.4-.3-.6-.3h0z" fill="#fff"/></svg>