<svg xmlns="http://www.w3.org/2000/svg" width="22" height="21" viewBox="0 0 18 17" xmlns:v="https://vecta.io/nano"><path d="M5.6 4.8h0 0c.1-.1.2-.1.4-.1s.4.1.5.2a.55.55 0 0 1 .3.5c0 .3-.2.6-.5.7L2.5 8.3l3.7 2.2c.3.1.5.4.5.7.1.5-.3.8-.7.8-.2 0-.3-.1-.4-.1h0L1 9.1C.9 9 .7 8.9.6 8.8s-.1-.3-.1-.5 0-.3.1-.5c.1-.1.3-.2.4-.3l4.6-2.7z" fill-rule="evenodd"/><path d="M5.6 16.3c0-.3.2-.6.6-.7h.1 2.1V1.3H6.2c-.4 0-.6-.3-.6-.6s.2-.7.6-.7h2.4c.8 0 1.2.3 1.2 1.1v14.7c0 .8-.4 1.1-1.2 1.1H6.2c-.4.1-.6-.2-.6-.6h0z"/><path d="M6.2 1.3c-.4 0-.6-.3-.6-.6s.2-.7.6-.7h2.4c.8 0 1.2.3 1.2 1.1v14.7c0 .8-.4 1.1-1.2 1.1H6.2c-.4 0-.6-.3-.6-.7 0-.3.2-.6.6-.7h.1 2.1V1.3H6.2zm6.1 10.6h0c-.2.1-.3.1-.4.1-.4 0-.7-.3-.7-.8 0-.3.2-.6.5-.7l3.8-2.2-3.7-2.2c-.3-.1-.5-.4-.5-.7 0-.2.1-.4.2-.5s.3-.2.5-.2.3.1.4.1h0 0L17 7.6a1.38 1.38 0 0 1 .4.3c.1.1.1.3.1.5s0 .3-.1.5c-.2 0-.4.1-.5.2l-4.6 2.8z" fill-rule="evenodd"/></svg>