<svg xmlns="http://www.w3.org/2000/svg" viewBox="0 0 32 32" xmlns:v="https://vecta.io/nano"><path d="M20.8 20.8c-.8 0-1.4-.6-1.4-1.5 0-.6.4-1.1.9-1.4l3.7-2.2-3.7-2.2c-.5-.2-.9-.8-.9-1.4a1.53 1.53 0 0 1 .4-1 1.53 1.53 0 0 1 1-.4c.3 0 .4.1.5.1h.1l.1.1 5.6 3.3c.2.1.4.3.6.5.3.3.3.7.3 1s0 .5-.2.9v.1l-.1.1-.3.3c-.1 0-.1.1-.2.1h0l-5.8 3.5h-.2c0 0-.2.1-.4.1z" fill-rule="evenodd"/><path d="M20.8 11.3c.2 0 .4.1.5.1l5.6 3.3c.2.1.3.2.5.4.1.1.1.4.1.6s0 .4-.1.6c-.1.1-.4.2-.5.4l-5.6 3.4c-.1 0-.2.1-.5.1-.5 0-.9-.4-.9-1 0-.4.2-.7.6-.9l4.5-2.7-4.5-2.6c-.4-.1-.6-.5-.6-.9 0-.2.1-.5.2-.6.2-.1.4-.2.7-.2m0-1.1c-.5 0-1 .2-1.4.6-.3.3-.6.9-.6 1.4 0 .8.5 1.5 1.2 1.8l2.9 1.7-2.9 1.7c-.7.3-1.2 1-1.2 1.8 0 1.2.8 2.1 2 2.1.3 0 .5-.1.7-.1h.1l.3-.2 5.6-3.4.1-.1.1-.1h.1c.1-.1.3-.2.4-.3l.1-.1.1-.2c.2-.5.2-.8.2-1.1 0-.4 0-.9-.4-1.4-.2-.2-.4-.4-.7-.6l-5.6-3.3-.3-.2h-.1c-.2.1-.5 0-.7 0h0z" fill="#fff"/><path d="M16.4 26.9c-1.7 0-2-1-2-1.9V7c0-.9.3-1.9 2-1.9h2.9c.8 0 1.3.6 1.3 1.4s-.5 1.4-1.3 1.4h-2v16.4h2.1c.4 0 .8.2 1 .5s.3.6.2.9c0 .7-.5 1.3-1.3 1.3h-2.9z"/><path d="M19.3 5.6c.5 0 .7.4.7.9s-.2.9-.7.9h-2.6v17.5h2.6.1c.4 0 .7.4.6.7 0 .4-.2.9-.7.9h-2.9c-1 0-1.5-.4-1.5-1.3V7c0-1 .5-1.3 1.5-1.3h2.9m0-1.2h-2.9c-1.6 0-2.6.9-2.6 2.4V25c0 1.6.9 2.4 2.6 2.4h2.9c1.1 0 1.8-.9 1.8-1.8.1-.4 0-.9-.3-1.3-.3-.5-.9-.7-1.4-.7h-.1-1.5V8.4h1.5c1.1 0 1.8-.8 1.8-2 0-1.1-.7-1.9-1.8-1.9h0z" fill="#fff"/><path d="M10.8 20.8c-.2 0-.5 0-.8-.2l-5.6-3.4c-.3-.1-.5-.3-.6-.4-.3-.3-.3-.7-.3-1s0-.5.2-.9v-.1l.1-.1c.1-.1.3-.3.6-.5l5.7-3.5h.2c.1 0 .2-.1.5-.1a1.53 1.53 0 0 1 1 .4c.4.4.5.7.5 1.1 0 .6-.4 1.1-.9 1.4l-3.8 2.2 3.8 2.2c.5.2.9.8.9 1.4 0 1-.8 1.5-1.5 1.5z" fill-rule="evenodd"/><path d="M10.8 11.2c.2 0 .5.1.6.2.2.2.4.5.4.7 0 .4-.2.7-.6.9l-4.6 2.7 4.6 2.7c.4.1.6.5.6.9 0 .6-.5 1-1 1-.1 0-.4 0-.5-.1l-5.6-3.4c-.2-.1-.4-.2-.5-.4-.1-.1-.1-.4-.1-.6s0-.4.1-.6c.1-.1.2-.2.5-.4l5.6-3.4c.1 0 .2-.2.5-.2m0-1.1c-.3 0-.5.1-.7.1H10l-.3.2-5.6 3.4c-.4.2-.6.4-.7.5l-.1.1-.1.2c-.2.5-.2.9-.2 1.2 0 .4 0 .9.4 1.4.1.1.4.4.7.5l5.5 3.4c.4.3.9.3 1.1.3 1.2 0 2.1-.9 2.1-2.1 0-.8-.5-1.5-1.2-1.9l-2.9-1.7 2.9-1.7c.7-.3 1.2-1 1.2-1.9 0-.4-.1-.9-.7-1.5-.3-.2-.8-.5-1.3-.5h0z" fill="#fff"/></svg>