<svg xmlns="http://www.w3.org/2000/svg" width="18" height="17" viewBox="0 0 17 17" xmlns:v="https://vecta.io/nano"><style><![CDATA[.B{fill:rgb(0%,0%,0%)}.C{fill-rule:evenodd}.D{fill:rgb(100%,100%,100%)}]]></style><path d="M.625 7.777l4.566-2.754c.109-.055.18-.094.316-.094a.47.47 0 0 1 .488.5c0 .207-.117.375-.34.488L1.555 8.305v.059l4.102 2.391c.223.117.34.285.34.492 0 .285-.199.5-.488.5-.145 0-.207-.039-.316-.09L.625 8.895C.359 8.75.254 8.582.254 8.336s.105-.414.371-.559zm0 0" class="B"/><path d="M5.074 4.785l.012-.008.031-.012c.098-.047.211-.102.391-.102a.73.73 0 0 1 .531.219c.137.141.211.336.211.547 0 .336-.195.582-.477.723l-3.746 2.18 3.746 2.188c.277.148.477.395.477.727 0 .434-.312.766-.742.766-.184 0-.293-.051-.387-.098-.012-.004-.023-.012-.035-.016l-.012-.004-4.57-2.77c-.152-.082-.281-.184-.375-.32C.035 8.66 0 8.5 0 8.336s.035-.324.129-.469c.094-.137.223-.238.375-.324zM.625 7.777l4.566-2.754c.012-.008.02-.012.031-.016.094-.047.16-.078.285-.078a.47.47 0 0 1 .488.5c0 .207-.117.375-.34.488L1.555 8.305v.059l4.102 2.391c.223.117.34.285.34.492 0 .285-.199.5-.488.5-.125 0-.187-.031-.277-.07-.012-.008-.027-.016-.039-.02L.625 8.895C.359 8.75.254 8.582.254 8.336s.105-.414.371-.559zm0 0" class="C D"/><path d="M5.063 16.324a.62.62 0 0 1 .648-.664h2.063V1.324H5.711c-.418 0-.648-.305-.648-.664s.23-.66.648-.66h2.406c.801 0 1.184.34 1.184 1.137v14.711c0 .797-.383 1.137-1.184 1.137H5.711c-.418 0-.648-.312-.648-.66zm0 0" class="B"/><path d="M8.027 15.926H5.711c-.148 0-.242.051-.297.113s-.098.164-.098.285a.4.4 0 0 0 .098.277c.059.066.152.117.297.117h2.406c.375 0 .594-.082.723-.203.121-.113.207-.312.207-.668V1.137c0-.355-.086-.555-.207-.668-.129-.121-.348-.203-.723-.203H5.711c-.148 0-.242.051-.297.113s-.098.164-.098.281.039.219.098.281.148.117.297.117h2.316zM5.711 1.324c-.418 0-.648-.305-.648-.664s.23-.66.648-.66h2.406c.801 0 1.184.34 1.184 1.137v14.711c0 .797-.383 1.137-1.184 1.137H5.711c-.418 0-.648-.312-.648-.66a.62.62 0 0 1 .648-.664h2.063V1.324zm0 0" class="C D"/><path d="M16.27 7.777c.258.145.363.312.363.559s-.105.414-.363.559l-4.574 2.762c-.109.051-.172.09-.312.09-.293 0-.492-.215-.492-.5 0-.207.117-.375.344-.492l4.098-2.391v-.059l-4.098-2.387c-.227-.113-.344-.281-.344-.488 0-.293.199-.5.492-.5.133 0 .203.039.313.094zm0 0" class="B"/><path d="M11.813 11.895l-.012.004c-.012.004-.023.012-.035.016a.78.78 0 0 1-.383.098c-.43 0-.746-.332-.746-.766 0-.332.199-.578.477-.727l3.75-2.187-3.746-2.18c-.281-.141-.48-.387-.48-.723 0-.211.074-.406.211-.547a.73.73 0 0 1 .535-.219c.18 0 .289.055.387.102l.031.012.012.008 4.578 2.762c.152.082.277.184.367.32.094.145.129.301.129.469a.82.82 0 0 1-.129.465c-.09.141-.215.242-.367.324zm4.457-3c.258-.145.363-.312.363-.559s-.105-.414-.363-.559l-4.574-2.754c-.008-.008-.02-.012-.027-.016-.098-.047-.164-.078-.285-.078-.293 0-.492.207-.492.5 0 .207.117.375.344.488l4.098 2.387v.059l-4.098 2.391c-.227.117-.344.285-.344.492 0 .285.199.5.492.5.125 0 .188-.031.277-.07.012-.008.023-.016.035-.02zm0 0" class="C D"/></svg>