<svg xmlns="http://www.w3.org/2000/svg" width="22" height="21" viewBox="0 0 18 17" xmlns:v="https://vecta.io/nano"><path d="M16.9 7.5a1.38 1.38 0 0 1 .4.3c.1.1.1.3.1.5s0 .3-.1.5c-.1.1-.3.2-.4.3l-4.6 2.8h0c-.1 0-.2.1-.4.1-.4 0-.7-.3-.7-.8 0-.3.2-.6.5-.7l3.7-2.2-3.7-2.2c-.3-.1-.5-.4-.5-.7 0-.2.1-.4.2-.5s.3-.2.5-.2.3.1.4.1h0 0l4.6 2.7z" fill-rule="evenodd"/><path d="M12.3 16.3c0 .3-.2.7-.6.7H9.3c-.8 0-1.2-.3-1.2-1.1V1.1C8.1.3 8.5 0 9.3 0h2.4c.4 0 .6.3.6.7s-.2.7-.6.7H9.6v14.3h2.1.1c.3 0 .6.3.5.6h0z"/><path d="M9.6 1.3v14.3h2.1.1c.3 0 .6.3.6.7 0 .3-.2.7-.6.7H9.3c-.8 0-1.2-.3-1.2-1.1V1.1C8.1.3 8.5 0 9.3 0h2.4c.4 0 .6.3.6.7s-.2.7-.6.7H9.6zM1 9.1C.8 9 .7 8.9.6 8.8s-.1-.3-.1-.5 0-.3.1-.5c.1-.1.2-.2.4-.3l4.6-2.8h0 0c.1 0 .2-.1.4-.1s.4.1.5.2c.2.2.3.4.3.6 0 .3-.2.6-.5.7L2.5 8.3l3.8 2.2c.3.1.5.4.5.7 0 .5-.4.8-.8.8-.1 0-.3 0-.4-.1h0L1 9.1z" fill-rule="evenodd"/></svg>