<svg xmlns="http://www.w3.org/2000/svg" width="16" height="14" fill="none" stroke="#9b9b9b" stroke-miterlimit="10" xmlns:v="https://vecta.io/nano"><path d="M6.986 10.986c-.544.544-.544 1.427 0 1.972s1.427.545 1.972 0 .544-1.427 0-1.972-1.427-.545-1.972 0zm0-10c-.544.544-.544 1.427 0 1.972s1.427.544 1.972 0 .544-1.427 0-1.972-1.427-.544-1.972 0zm5.835 4.87c-.544.544-.544 1.427 0 1.972s1.427.544 1.972 0 .544-1.427 0-1.972-1.427-.544-1.972 0zM.988 6.787c-.546.546-.547 1.43-.002 1.974s1.428.543 1.974-.002.547-1.43.002-1.974-1.428-.543-1.974.002z"/><path d="M8 11V3M3.02 6.841L7 3m2 8l3.649-3.349"/></svg>