<svg xmlns="http://www.w3.org/2000/svg" width="84" height="10" fill="#fff057" xmlns:v="https://vecta.io/nano"><path d="M1.67 9.05C1.07 8.67.66 8.11.45 7.39.23 6.67.23 5.82.45 4.83c.21-.96.58-1.79 1.12-2.51S2.76 1.05 3.51.66C4.27.27 5.08.08 5.95.08c.75 0 1.4.13 1.93.39.54.26.93.64 1.19 1.13s.36 1.06.29 1.72l-1.83.31c.04-.69-.12-1.2-.46-1.54-.34-.33-.82-.5-1.45-.5-.44 0-.89.11-1.33.34S3.45 2.51 3.1 3s-.61 1.09-.76 1.82c-.15.7-.17 1.29-.05 1.79.12.49.35.86.69 1.12.34.25.76.38 1.25.38.62 0 1.17-.16 1.66-.47.48-.31.87-.8 1.15-1.49l1.71.28a5.37 5.37 0 0 1-1.11 1.71c-.47.48-1.03.85-1.67 1.11s-1.33.38-2.06.38c-.89 0-1.63-.19-2.22-.58h-.02zM17.55.2h1.79l-2.03 9.3h-1.79l.89-4.05H12l-.89 4.05H9.32L11.35.2h1.79l-.81 3.72h4.41L17.55.2zm5.93-.2h2.34l1.47 9.3h-1.86l-.34-2.27h-3.97L19.83 9.3H18L23.49 0h-.01zm1.39 5.54l-.6-4.05-2.31 4.05h2.91zM30.8.2h2.94l1.15 4.66.38 1.49.37 1.45c.02.04.03.09.04.13L37.37.2h1.74l-2.03 9.3h-2.87l-1.08-4.41-.51-1.99-.38-1.5-.75 3.43-.98 4.48h-1.74l2.04-9.3L30.8.2zm10.32 0h2.94l1.14 4.66.38 1.49.37 1.45c.02.04.03.09.04.13L47.68.2h1.74l-2.04 9.3h-2.87l-1.08-4.41-.51-1.99-.38-1.5-.75 3.43-.98 4.48h-1.74L41.1.21l.02-.01zm10.33 0h6.66l-.33 1.53h-4.86l-.49 2.22h4.46l-.33 1.51H52.1l-.55 2.51h4.91l-.33 1.53h-6.71L51.46.2h-.01zm8.26 0h1.79l-1.7 7.77h4.8l-.33 1.53h-6.59L59.71.2zm11.35 8.84c-.49-.39-.81-.94-.96-1.64-.15-.71-.12-1.53.08-2.46s.53-1.75.99-2.45 1.02-1.25 1.68-1.64S74.23.27 75 .27s1.41.19 1.9.58.8.94.96 1.64c.15.7.13 1.52-.08 2.45-.21.94-.54 1.76-1 2.46s-1.02 1.25-1.67 1.64c-.66.39-1.38.58-2.15.58s-1.4-.19-1.89-.58h-.01zm3.38-1.27c.36-.27.66-.65.91-1.13s.45-1.05.59-1.69c.14-.66.2-1.22.15-1.71-.04-.48-.18-.86-.42-1.13s-.57-.41-.99-.41-.81.13-1.17.39c-.35.26-.66.63-.91 1.12s-.45 1.06-.6 1.73c-.14.66-.2 1.23-.16 1.71.04.49.18.86.42 1.12s.57.39 1 .39.82-.13 1.17-.4l.01.01zm7.14-4.73h-2.3l.33-1.5h2.3l.25-1.16h1.78l-1.99 9.11h-1.78l1.41-6.46v.01z"/></svg>