<svg xmlns="http://www.w3.org/2000/svg" xmlns:xlink="http://www.w3.org/1999/xlink" width="9" height="23" fill="none" xmlns:v="https://vecta.io/nano"><g fill="#000"><path d="M1.938 2.977c.593 0 1.074-.573 1.074-1.279S2.531.419 1.938.419.864.991.864 1.698s.481 1.279 1.074 1.279zm5.164 0c.593 0 1.074-.573 1.074-1.279S7.696.419 7.102.419 6.028.991 6.028 1.698s.481 1.279 1.074 1.279zM1.938 7.873c.593 0 1.074-.573 1.074-1.279s-.481-1.279-1.074-1.279S.864 5.887.864 6.594s.481 1.279 1.074 1.279z"/><use xlink:href="#B"/><path d="M1.938 12.779c.593 0 1.074-.573 1.074-1.279s-.481-1.279-1.074-1.279S.864 10.794.864 11.5s.481 1.279 1.074 1.279z"/><use xlink:href="#B" y="4.906"/><path d="M1.938 17.685c.593 0 1.074-.573 1.074-1.279s-.481-1.279-1.074-1.279S.864 15.7.864 16.406s.481 1.279 1.074 1.279z"/><use xlink:href="#B" y="9.812"/><use xlink:href="#B" x="-5.164" y="14.708"/><use xlink:href="#B" y="14.708"/></g><defs ><path id="B" d="M7.102 7.873c.593 0 1.074-.573 1.074-1.279s-.481-1.279-1.074-1.279-1.074.573-1.074 1.279.481 1.279 1.074 1.279z"/></defs></svg>