<svg xmlns="http://www.w3.org/2000/svg" width="58" height="9" fill="#000" xmlns:v="https://vecta.io/nano"><path d="M2.04 8.39c-.46-.19-.81-.47-1.04-.86-.24-.38-.35-.85-.34-1.4l1.64-.32c-.02.52.12.9.41 1.14s.71.36 1.25.36a3.34 3.34 0 0 0 .87-.11 1.71 1.71 0 0 0 .67-.35 1.11 1.11 0 0 0 .35-.61c.04-.19.04-.35-.02-.49-.05-.13-.16-.25-.31-.33-.15-.09-.37-.17-.64-.25-.05 0-.09-.01-.11-.02-.02 0-.05-.01-.11-.03L3.4 4.86c-.64-.13-1.12-.4-1.42-.8s-.38-.92-.24-1.56c.16-.73.57-1.31 1.24-1.72C3.65.36 4.47.16 5.46.16c.63 0 1.15.09 1.56.27s.71.45.91.8.3.78.3 1.27l-1.63.31c0-.46-.11-.79-.35-1s-.61-.31-1.1-.31c-.35 0-.64.04-.88.12a1.43 1.43 0 0 0-.57.33c-.14.14-.23.3-.27.5-.06.28 0 .49.16.63.16.15.48.27.94.37l1.09.25c.53.12.95.28 1.27.49s.53.48.64.81c.12.33.12.73.02 1.2-.11.49-.34.92-.71 1.3s-.82.67-1.36.87a4.81 4.81 0 0 1-1.75.31c-.67 0-1.24-.09-1.7-.29h.01zM12.48.27h2.08l1.31 8.29h-1.66l-.3-2.02h-3.54L9.22 8.56H7.59L12.48.27zm1.24 4.94l-.54-3.61-2.06 3.61h2.59.01zM16.9.27h1.64l.92 6.95L23.3.27h1.66l-4.77 8.29h-2.11L16.9.27zm9.01 0h5.93l-.3 1.36h-4.33l-.43 1.98h3.98l-.29 1.35h-3.98L26 7.2h4.38l-.3 1.36H24.1L25.91.27zm17.37 0h2.76l-1.81 8.29h-1.56l1.57-7.19-3.55 7.19h-2.31l-.39-7.27-1.59 7.27h-1.56L36.65.27h2.77l.34 7.23L43.29.27h-.01zm4.55 0h1.6l-1.81 8.29h-1.6L47.83.27zm2.72 0h1.82l1.36 2.83 2.4-2.83H58l-3.69 4.04 2.04 4.25h-1.82l-1.51-3.12-2.58 3.12h-1.87l3.88-4.34-1.9-3.94V.27z"/></svg>