<svg xmlns="http://www.w3.org/2000/svg" width="7" height="8" fill="none" xmlns:v="https://vecta.io/nano"><path d="M1.766 7.745c-.468-.181-.862-.447-1.16-.809S.106 6.138 0 5.617l1.479-.298c.085.489.298.851.628 1.074s.745.34 1.245.34c.298 0 .564-.032.798-.106s.415-.181.553-.33.202-.34.202-.574c0-.181-.043-.33-.117-.457s-.202-.234-.362-.309c-.16-.085-.383-.16-.66-.234-.053 0-.085-.011-.106-.021-.021 0-.053-.011-.106-.032l-1.234-.245c-.628-.128-1.128-.372-1.5-.755S.266 2.809.266 2.202c0-.691.266-1.234.809-1.617S2.351 0 3.277 0c.596 0 1.106.085 1.521.255.426.17.766.426 1.021.755.266.33.447.734.543 1.202L4.894 2.5c-.085-.436-.266-.745-.532-.947-.266-.191-.638-.298-1.106-.298a2.81 2.81 0 0 0-.809.106c-.213.074-.372.181-.468.309s-.149.287-.149.479c0 .255.096.457.277.596s.5.255.957.351l1.085.234a4.42 4.42 0 0 1 1.287.457 2.12 2.12 0 0 1 .777.755c.17.309.266.681.266 1.128s-.128.872-.404 1.223a2.65 2.65 0 0 1-1.106.819C4.5 7.904 3.968 8 3.383 8c-.628 0-1.181-.085-1.66-.266l.043.011z" fill="#9b9b9b"/></svg>