<svg width="134" height="128" viewBox="0 0 134 128" fill="none" xmlns="http://www.w3.org/2000/svg">
<path d="M4.92969 58.5615L40.916 37.8096C41.7949 37.4189 42.332 37.126 43.4062 37.126C45.7012 37.126 47.2637 38.6885 47.2637 40.8857C47.2637 42.4482 46.3359 43.7178 44.5781 44.5479L12.2539 62.5166V62.9561L44.5781 80.9736C46.3359 81.8525 47.2637 83.1221 47.2637 84.6846C47.2637 86.833 45.7012 88.4443 43.4062 88.4443C42.2832 88.4443 41.7949 88.1514 40.916 87.7607L4.92969 66.96C2.83008 65.8857 2 64.6162 2 62.7607C2 60.9053 2.83008 59.6357 4.92969 58.5615Z" fill="black"/>
<path fill-rule="evenodd" clip-rule="evenodd" d="M40.0078 36.0246L40.1037 35.9819C40.1819 35.9472 40.261 35.9113 40.3415 35.8747C41.1023 35.5292 41.99 35.126 43.4062 35.126C45.0178 35.126 46.5047 35.6824 47.5969 36.7549C48.6906 37.8289 49.2637 39.2989 49.2637 40.8857C49.2637 43.3998 47.7163 45.2565 45.4956 46.3261L15.9713 62.7384L45.515 79.2061C47.7082 80.3163 49.2637 82.1627 49.2637 84.6846C49.2637 87.9546 46.7886 90.4443 43.4062 90.4443C41.9687 90.4443 41.1122 90.0506 40.3797 89.7139C40.286 89.6708 40.1943 89.6286 40.1037 89.5884L40.0069 89.5453L3.97132 68.7161C2.76628 68.0933 1.74202 67.3229 1.02941 66.2864C0.286203 65.2054 0 64.0077 0 62.7607C0 61.5138 0.286203 60.3161 1.02941 59.2351C1.74221 58.1983 2.76681 57.4278 3.97225 56.8049L40.0078 36.0246ZM4.92969 58.5615L40.916 37.8096C40.9998 37.7724 41.0804 37.736 41.1587 37.7007C41.9022 37.3658 42.4344 37.126 43.4062 37.126C45.7012 37.126 47.2637 38.6885 47.2637 40.8857C47.2637 42.4482 46.3359 43.7178 44.5781 44.5479L12.2539 62.5166V62.9561L44.5781 80.9736C46.3359 81.8525 47.2637 83.1221 47.2637 84.6846C47.2637 86.833 45.7012 88.4443 43.4062 88.4443C42.4193 88.4443 41.9226 88.2181 41.2202 87.8981C41.1233 87.854 41.0225 87.8081 40.916 87.7607L4.92969 66.96C2.83008 65.8857 2 64.6162 2 62.7607C2 60.9053 2.83008 59.6357 4.92969 58.5615Z" fill="white"/>
<path d="M39.8994 122.9C39.8994 120.19 41.7305 117.92 45.0264 117.92H61.2861V9.96094H45.0264C41.7305 9.96094 39.8994 7.69043 39.8994 4.98047C39.8994 2.27051 41.7305 0 45.0264 0H63.9961C70.2949 0 73.2979 2.56348 73.2979 8.56934V119.312C73.2979 125.317 70.2949 127.881 63.9961 127.881H45.0264C41.7305 127.881 39.8994 125.537 39.8994 122.9Z" fill="black"/>
<path fill-rule="evenodd" clip-rule="evenodd" d="M63.2861 119.92H45.0264C43.8609 119.92 43.1216 120.308 42.67 120.779C42.2021 121.266 41.8994 121.994 41.8994 122.9C41.8994 123.761 42.1961 124.496 42.6769 125.002C43.1382 125.487 43.8802 125.881 45.0264 125.881H63.9961C66.9326 125.881 68.6633 125.274 69.6672 124.365C70.6275 123.496 71.2979 122.006 71.2979 119.312V8.56934C71.2979 5.87457 70.6275 4.38436 69.6672 3.51554C68.6633 2.60721 66.9326 2 63.9961 2H45.0264C43.8609 2 43.1216 2.38817 42.67 2.85876C42.2021 3.3464 41.8994 4.07369 41.8994 4.98047C41.8994 5.88724 42.2021 6.61454 42.67 7.10218C43.1216 7.57277 43.8609 7.96094 45.0264 7.96094H63.2861V119.92ZM45.0264 9.96094C41.7305 9.96094 39.8994 7.69043 39.8994 4.98047C39.8994 2.27051 41.7305 0 45.0264 0H63.9961C70.2949 0 73.2979 2.56348 73.2979 8.56934V119.312C73.2979 125.317 70.2949 127.881 63.9961 127.881H45.0264C41.7305 127.881 39.8994 125.537 39.8994 122.9C39.8994 120.19 41.7305 117.92 45.0264 117.92H61.2861V9.96094H45.0264Z" fill="white"/>
<path d="M128.236 58.5615C130.287 59.6357 131.117 60.9053 131.117 62.7607C131.117 64.6162 130.287 65.8857 128.236 66.96L92.2012 87.7607C91.3223 88.1514 90.834 88.4443 89.7109 88.4443C87.416 88.4443 85.8535 86.833 85.8535 84.6846C85.8535 83.1221 86.7812 81.8525 88.5391 80.9736L120.863 62.9561V62.5166L88.5391 44.5479C86.7812 43.7178 85.8535 42.4482 85.8535 40.8857C85.8535 38.6885 87.416 37.126 89.7109 37.126C90.7852 37.126 91.3223 37.4189 92.2012 37.8096L128.236 58.5615Z" fill="black"/>
<path fill-rule="evenodd" clip-rule="evenodd" d="M93.1097 89.5456L93.0135 89.5884C92.9228 89.6286 92.8312 89.6708 92.7374 89.7139C92.005 90.0506 91.1485 90.4443 89.7109 90.4443C86.3286 90.4443 83.8535 87.9546 83.8535 84.6846C83.8535 82.1627 85.409 80.3163 87.6022 79.2061L117.146 62.7384L87.6216 46.3261C85.4009 45.2565 83.8535 43.3998 83.8535 40.8857C83.8535 39.2989 84.4266 37.8289 85.5203 36.7549C86.6125 35.6824 88.0993 35.126 89.7109 35.126C91.1272 35.126 92.0149 35.5292 92.7757 35.8747C92.8562 35.9113 92.9353 35.9472 93.0135 35.9819L93.1088 36.0243L129.201 56.8093C130.387 57.4353 131.397 58.2087 132.101 59.2452C132.831 60.3217 133.117 61.5141 133.117 62.7607C133.117 64.0074 132.831 65.1998 132.101 66.2763C131.398 67.3126 130.388 68.0858 129.202 68.7117L93.1097 89.5456ZM128.236 66.96C130.287 65.8857 131.117 64.6162 131.117 62.7607C131.117 60.9053 130.287 59.6357 128.236 58.5615L92.2012 37.8096C92.1174 37.7724 92.0368 37.736 91.9585 37.7007C91.215 37.3658 90.6828 37.126 89.7109 37.126C87.416 37.126 85.8535 38.6885 85.8535 40.8857C85.8535 42.4482 86.7812 43.7178 88.5391 44.5479L120.863 62.5166V62.9561L88.5391 80.9736C86.7812 81.8525 85.8535 83.1221 85.8535 84.6846C85.8535 86.833 87.416 88.4443 89.7109 88.4443C90.6979 88.4443 91.1946 88.2181 91.897 87.8981C91.9939 87.854 92.0947 87.8081 92.2012 87.7607L128.236 66.96Z" fill="white"/>
</svg>
